<svg xmlns="http://www.w3.org/2000/svg" xmlns:xlink="http://www.w3.org/1999/xlink" viewBox="0 0 438.86 155.26" xmlns:v="https://vecta.io/nano"><g fill="#3c3c3b"><path d="M90.42 89.95h7.83l25.92-72.35h13.02l25.92 72.35h7.83v8.99h-28.23v-8.99h8.64l-6.34-18.09h-28.8l-6.34 18.09h8.76v8.99H90.42v-8.99zm51.73-27.31l-9.91-28.23c-1.15-3.34-1.38-6.22-1.38-6.22h-.35s-.35 2.88-1.38 6.22l-10.02 28.23h23.04zm60.51-23.38c8.64 0 22.81 3.23 22.81 13.25v7.14h-9.91v-4.03c0-4.49-7.37-6.68-12.56-6.68-11.75 0-19.82 8.29-19.82 20.74 0 13.25 9.33 20.97 20.51 20.97 9.91 0 16.59-5.88 18.66-7.49l4.26 8.18c-2.65 2.42-11.06 8.99-23.39 8.99-16.82 0-31.45-11.64-31.45-30.41.02-17.88 13.5-30.66 30.89-30.66zm62.01 0c17.4 0 31.45 12.79 31.45 30.41 0 17.74-14.06 30.64-31.45 30.64s-31.45-12.9-31.45-30.64c0-17.63 14.06-30.41 31.45-30.41zm0 51.38c10.94 0 20.05-8.75 20.05-20.97 0-12.1-9.1-20.74-20.05-20.74-11.06 0-20.04 8.64-20.04 20.74 0 12.21 8.98 20.97 20.04 20.97zm37.33-.35h8.76V51.81c0-1.73-.92-2.53-2.53-2.53h-7.26v-8.64h13.13c5.07 0 7.49 2.07 7.49 6.8v3.69c0 2.3-.23 4.03-.23 4.03h.23c2.65-8.53 9.45-15.21 18.43-15.21a19.82 19.82 0 0 1 2.88.23v11.06s-1.38-.35-3.23-.35c-12.44 0-17.74 12.56-17.74 23.96v15.44h8.64v8.64H302v-8.64zm49.26 0h9.1V51.81c0-1.73-.92-2.53-2.53-2.53h-7.14v-8.64h13.13c5.07 0 7.37 2.19 7.37 6.45v3c0 1.84-.35 3.34-.35 3.34h.23c1.15-3.11 7.95-14.17 22.7-14.17 13.36 0 19.35 7.49 19.35 22.35V90.3h9.22v8.64h-20.39v-34.8c0-8.18-1.61-14.63-10.94-14.63-11.75 0-19.47 10.71-19.47 22.35v18.43h9.22v8.64h-29.49v-8.64zm-226.5 23.42h12.71v2.56h-9.66v7.84h8.93v2.52h-8.93v10.68h-3.05v-23.6zm42.94 0v23.59h-3.05v-23.59h3.05z"/><use xlink:href="#B"/><path d="M245.58 129.88l-2.45 7.42h-3.15l8.02-23.59h3.68l8.05 23.59h-3.25l-2.52-7.42h-8.38zm7.73-2.38l-2.31-6.79c-.53-1.54-.88-2.94-1.23-4.31h-.07l-1.19 4.27-2.31 6.83h7.11z"/><use xlink:href="#B" x="90.16"/><path d="M348.41 136.53c-1.12.56-3.36 1.12-6.23 1.12-6.65 0-11.66-4.2-11.66-11.94 0-7.39 5.01-12.39 12.32-12.39 2.94 0 4.8.63 5.6 1.05l-.73 2.49c-1.16-.56-2.8-.98-4.76-.98-5.53 0-9.21 3.54-9.21 9.73 0 5.78 3.33 9.49 9.07 9.49 1.85 0 3.75-.38 4.97-.98l.63 2.41zm38.88-10.29h-9.17v8.51h10.22v2.56h-13.27v-23.59h12.74v2.56h-9.7v7.46h9.17v2.5z"/></g><g transform="translate(.312)"><path d="M59.23 16.91c.85-.53 1.61-.75 1.43 0-.74 3.09-2.69 3.6-2.69 9.34 0 2.64 1.73 4.6 5.18 5.86l-14.83-1.44c6.71-8.82 10.35-13.4 10.91-13.76z" fill="#70b4e3"/><g transform="translate(0 15.797)"><path d="M19.56 34.93h-.12l-3.01.11c-2.16-9.44 5.15-18.51 15.75-19.54a226.04 226.04 0 0 1 44.14 0c9.34.91 16.13 8.06 16.13 16.21a14.67 14.67 0 0 1-.38 3.33c0-.04-1.2-.08-3.29-.11l-.01 1.93v.81.81l-.01.81-.22 11.17C87.24 60.81 81.36 69.73 73 75.14c-5.4 3.5-16.01 10.24-19.43 10.24s-12.8-6.79-18.23-10.34c-8.44-5.53-14.32-14.65-15.46-25.2-.07-.61-.18-6.33-.29-12.04l-.02-1.19-.02-1.18.01-.5h0z" fill="#92c9ed"/><defs><filter id="A" filterUnits="userSpaceOnUse" x="13.39" y="-1.61" width="105.74" height="126.09"><feColorMatrix values="1 0 0 0 0  0 1 0 0 0  0 0 1 0 0  0 0 0 1 0"/></filter><path id="B" d="M195.88 137.31v-23.59h3.33l7.56 11.94c1.75 2.77 3.12 5.25 4.24 7.67l.07-.04c-.28-3.15-.35-6.02-.35-9.7v-9.87h2.87v23.59h-3.08l-7.49-11.97-4.41-7.88-.11.03.25 9.73v10.08h-2.88z"/></defs><mask maskUnits="userSpaceOnUse" x="13.39" y="-1.61" width="105.74" height="126.09" id="C"><g filter="url(#A)"><path d="M19.56 34.93h-.12l-3.01.11c-2.16-9.44 5.15-18.51 15.75-19.54a226.04 226.04 0 0 1 44.14 0c9.34.91 16.13 8.06 16.13 16.21a14.67 14.67 0 0 1-.38 3.33c0-.04-1.2-.08-3.29-.11l-.01 1.93v.81.81l-.01.81-.22 11.17C87.24 60.81 81.36 69.73 73 75.14c-5.4 3.5-16.01 10.24-19.43 10.24s-12.8-6.79-18.23-10.34c-8.44-5.53-14.32-14.65-15.46-25.2-.07-.61-.18-6.33-.29-12.04l-.02-1.19-.02-1.18.01-.5h0z" fill="#fff"/></g></mask><g mask="url(#C)"><g transform="translate(-3.491 -18.36)"><g transform="translate(0 11.426)"><path d="M57.79 15.87l39.45 39.46-39.45 39.45-39.45-39.45z" fill="#a0d1f1"/><path d="M56.99 32.88L97.1 72.99 56.99 113.1 16.88 72.99z" fill="#70b4e3"/><path d="M56.99 47.92l32.59 32.59-32.59 32.59L24.4 80.51z" fill="#237ec2"/><path d="M56.99 66.23l32.59 32.59-32.59 32.59L24.4 98.82z" fill="#095895"/></g><path d="M57.13 16.75h65.49v105.52H57.13z" opacity=".113" fill="#010101" enable-background="new"/></g></g></g></g></svg>