<svg xmlns="http://www.w3.org/2000/svg" width="215" height="70" viewBox="0 0 215 70" fill="none"><path d="M84.315 41.218h9.672v-11.09h5.665v27.924h-5.665V45.993h-9.672v12.06H78.65V30.128h5.665v11.09Zm35.508-11.088v4.816h-11.736v6.272h10.522v4.775h-10.522v7.286h11.736v4.775h-17.401V30.131h17.401Zm1.769 27.924 9.712-27.923h5.422l9.712 27.923h-6.03l-1.7-5.3h-9.347l-1.7 5.3h-6.071.002Zm9.268-10.076h6.314l-3.157-9.833-3.157 9.833Zm32.861 10.076-5.018-10.968h-4.532v10.968h-5.665V30.131h9.996c6.436 0 10.441 2.872 10.441 8.54 0 3.764-1.74 6.232-4.776 7.486l5.787 11.897h-6.233Zm-5.746-15.743c3.358 0 5.3-.729 5.3-3.643 0-2.914-1.942-3.722-5.3-3.722h-3.804v7.365h3.804Zm33.143-12.181v4.816h-7.689v23.108h-5.665V34.946h-7.69V30.13h21.044Zm8.174 11.088h9.672v-11.09h5.665v27.924h-5.665V45.993h-9.672v12.06h-5.665V30.128h5.665v11.09Z" fill="#000"></path><path d="m44.922 17.955 22.435 12.138v27.923L44.917 70V42.787L22.582 30.093l22.34-12.138ZM22.583 0v27.93L0 40.258v-28.14L22.583 0Z" fill="#A33035"></path><path d="M22.583 30.094v27.93L0 70V42.788l22.583-12.694Z" fill="#A33035"></path></svg>